<?xml version="1.0" encoding="UTF-8" standalone="no"?>
<svg width="225px" height="41px" viewBox="0 0 225 41" version="1.1" xmlns="http://www.w3.org/2000/svg" xmlns:xlink="http://www.w3.org/1999/xlink">
    <!-- Generator: Sketch 3.8.1 (29687) - http://www.bohemiancoding.com/sketch -->
    <title>Page 1</title>
    <desc>Created with Sketch.</desc>
    <defs></defs>
    <g id="Page-1" stroke="none" stroke-width="1" fill="none" fill-rule="evenodd">
        <g>
            <path d="M58.8154,26.6699 L49.8644,26.6699 L49.8644,8.4519 C49.8644,7.0519 48.7104,5.9129 47.2914,5.9129 C45.8914,5.9129 44.7534,7.0519 44.7534,8.4519 L44.7534,29.2439 C44.7534,30.6439 45.8914,31.7809 47.2914,31.7809 L58.8154,31.7809 C60.1914,31.7809 61.3534,30.6189 61.3534,29.2439 C61.3534,27.8489 60.1914,26.6699 58.8154,26.6699" id="Fill-1" fill="#3C4858"></path>
            <path d="M67.6094,5.913 C66.1854,5.913 65.0704,7.028 65.0704,8.452 L65.0704,29.244 C65.0704,30.667 66.1854,31.781 67.6094,31.781 C69.0284,31.781 70.1814,30.643 70.1814,29.244 L70.1814,8.452 C70.1814,7.052 69.0284,5.913 67.6094,5.913" id="Fill-3" fill="#3C4858"></path>
            <path d="M90.626,17.2128 C89.308,16.5868 87.67,16.0878 85.621,15.6858 L85.491,15.6748 C83.714,15.3408 82.215,14.8158 81.373,14.2328 C80.878,13.8878 80.668,13.6188 80.586,13.4878 C80.488,13.3328 80.432,13.1738 80.432,12.8208 C80.432,12.2058 80.801,11.6208 81.527,11.0818 C82.455,10.3968 83.763,10.0028 85.117,10.0028 C87.067,10.0028 88.69,10.9788 90.459,12.1558 C91.545,12.8838 93.123,12.5318 93.787,11.4718 C94.533,10.3978 94.244,8.8998 93.127,8.1228 L93.037,8.0658 C91.174,6.8588 88.622,5.2078 85.117,5.2078 C82.725,5.2078 80.435,5.9108 78.665,7.1928 C76.719,8.6308 75.603,10.6818 75.603,12.8208 C75.603,13.9748 75.913,15.0838 76.504,16.0308 C77.278,17.2608 78.465,18.2598 80.032,19.0018 C81.283,19.5938 82.817,20.0598 84.723,20.4238 L84.852,20.4348 C86.796,20.8028 88.454,21.3688 89.401,21.9888 C89.806,22.2588 90.084,22.5338 90.277,22.8558 C90.448,23.1428 90.51,23.3578 90.51,23.6758 C90.51,24.4208 90.082,25.1108 89.239,25.7288 C88.209,26.4838 86.732,26.9178 85.101,26.9178 C82.805,26.9178 80.291,25.5288 78.838,24.3398 C77.842,23.5228 76.24,23.6688 75.41,24.6828 C74.603,25.7288 74.771,27.2558 75.794,28.0928 C77.878,29.7378 81.197,31.7088 85.183,31.7458 L85.189,31.7458 C87.756,31.7458 90.197,30.9918 92.059,29.6248 C94.144,28.1248 95.339,25.9558 95.339,23.6758 C95.339,22.5058 95.007,21.3288 94.402,20.3608 C93.616,19.0988 92.383,18.0688 90.626,17.2128" id="Fill-5" fill="#3C4858"></path>
            <path d="M115.4258,5.913 L100.3768,5.913 C98.9538,5.913 97.8398,7.028 97.8398,8.452 C97.8398,9.871 98.9778,11.024 100.3768,11.024 L105.3458,11.024 L105.3458,29.244 C105.3458,30.643 106.4848,31.781 107.8838,31.781 C109.3078,31.781 110.4218,30.667 110.4218,29.244 L110.4218,11.024 L115.4258,11.024 C116.8018,11.024 117.9638,9.847 117.9638,8.452 C117.9638,7.052 116.8248,5.913 115.4258,5.913" id="Fill-7" fill="#3C4858"></path>
            <path d="M130.2197,20.8906 L126.2447,20.8906 L128.2327,15.6166 L130.2197,20.8906 Z M130.6567,7.5546 C130.2557,6.5776 129.3357,5.9466 128.3137,5.9466 L128.1547,5.9466 C127.1467,5.9466 126.2037,6.5926 125.8037,7.5716 L118.0097,28.3436 C117.5447,29.6936 118.2117,31.1396 119.5477,31.6436 C119.8267,31.7376 120.1007,31.7816 120.4087,31.7816 C121.4587,31.7816 122.3967,31.1516 122.8027,30.1616 L124.3827,25.9666 L132.1167,25.9666 L133.6957,30.1556 C134.0497,31.1276 134.9987,31.7816 136.0567,31.7816 C136.2517,31.7816 136.6267,31.7616 136.9387,31.6366 C138.2547,31.1396 138.9207,29.6936 138.4497,28.3276 L130.6567,7.5546 Z" id="Fill-9" fill="#3C4858"></path>
            <path d="M147.458,15.4638 L147.458,11.0248 L149.889,11.0248 C151.113,11.0248 152.073,11.9848 152.073,13.2088 C152.073,14.4518 151.093,15.4638 149.889,15.4638 L147.458,15.4638 Z M154.293,23.6058 C154.293,25.2928 152.957,26.6388 151.263,26.6698 L147.458,26.6698 L147.458,20.5738 L151.252,20.5738 C152.957,20.6048 154.293,21.9358 154.293,23.6058 L154.293,23.6058 Z M156.079,17.0698 C156.805,15.9128 157.185,14.5908 157.185,13.2088 C157.185,9.1858 153.912,5.9128 149.889,5.9128 L144.885,5.9128 C143.485,5.9128 142.347,7.0518 142.347,8.4518 L142.347,29.2438 C142.347,30.4848 143.243,31.5218 144.423,31.7388 L151.263,31.7808 C155.752,31.7808 159.404,28.1138 159.404,23.6058 C159.404,21.0198 158.173,18.6198 156.079,17.0698 L156.079,17.0698 Z" id="Fill-11" fill="#3C4858"></path>
            <path d="M178.0996,11.0244 C179.4746,11.0244 180.6366,9.8464 180.6366,8.4524 C180.6366,7.0514 179.4986,5.9134 178.0996,5.9134 L166.5766,5.9134 C165.1526,5.9134 164.0366,7.0284 164.0366,8.4524 L164.0366,29.2444 C164.0366,30.4714 164.9136,31.4994 166.0756,31.7324 L178.0996,31.7814 C179.4746,31.7814 180.6366,30.6194 180.6366,29.2444 C180.6366,27.8484 179.4746,26.6704 178.0996,26.6704 L169.1496,26.6704 L169.1496,21.3844 L176.7596,21.3844 C178.1596,21.3844 179.2976,20.2314 179.2976,18.8124 C179.2976,17.4354 178.1356,16.2734 176.7596,16.2734 L169.1496,16.2734 L169.1496,11.0244 L178.0996,11.0244 Z" id="Fill-13" fill="#3C4858"></path>
            <path d="M201.415,5.913 L186.367,5.913 C184.943,5.913 183.829,7.028 183.829,8.452 C183.829,9.871 184.968,11.024 186.367,11.024 L191.336,11.024 L191.336,29.244 C191.336,30.643 192.474,31.781 193.873,31.781 C195.296,31.781 196.41,30.667 196.41,29.244 L196.41,11.024 L201.415,11.024 C202.791,11.024 203.953,9.847 203.953,8.452 C203.953,7.052 202.814,5.913 201.415,5.913" id="Fill-15" fill="#3C4858"></path>
            <path d="M216.21,20.8906 L212.234,20.8906 L214.222,15.6156 L216.21,20.8906 Z M224.439,28.3276 L216.646,7.5546 C216.245,6.5776 215.325,5.9466 214.303,5.9466 L214.144,5.9466 C213.134,5.9466 212.191,6.5926 211.793,7.5716 L203.999,28.3426 C203.533,29.6926 204.199,31.1386 205.537,31.6436 C205.816,31.7386 206.09,31.7816 206.398,31.7816 C207.448,31.7816 208.385,31.1526 208.793,30.1616 L210.373,25.9666 L218.106,25.9666 L219.685,30.1556 C220.039,31.1276 220.988,31.7816 222.045,31.7816 C222.241,31.7816 222.617,31.7616 222.927,31.6366 C224.243,31.1396 224.91,29.6926 224.439,28.3276 L224.439,28.3276 Z" id="Fill-17" fill="#3C4858"></path>
            <path d="M18.1094,17.3222 L18.1094,17.3222 L21.2594,17.3222 L23.6214,17.3222 L23.6214,31.4942 L8.6624,31.4942 L8.6624,4.7242 L17.3224,4.7242 L17.3224,16.5352 C17.3224,16.9692 17.6744,17.3222 18.1094,17.3222 M27.5584,12.5982 L22.0464,12.5982 L22.0464,3.9372 L22.0464,0.7872 C22.0464,0.3522 21.6934,0.0002 21.2594,0.0002 L18.1094,0.0002 L7.8754,0.0002 L4.7234,0.0002 C4.2894,0.0002 3.9374,0.3522 3.9374,0.7872 L3.9374,3.9372 L3.9374,32.2832 L3.9374,35.4312 L3.9374,35.4322 L0.7874,35.4322 C0.3524,35.4322 0.0004,35.7842 0.0004,36.2192 L0.0004,39.3682 C0.0004,39.8032 0.3524,40.1562 0.7874,40.1562 L3.9374,40.1562 C4.3724,40.1562 4.7234,39.8032 4.7234,39.3682 L4.7234,36.2192 L7.8754,36.2192 L24.4084,36.2192 L27.5584,36.2192 C27.9924,36.2192 28.3454,35.8672 28.3454,35.4312 L28.3454,32.2832 L28.3454,16.5352 L28.3454,14.1722 L28.3454,13.3852 C28.3454,12.9512 27.9924,12.5982 27.5584,12.5982" id="Fill-19" fill="#37C5F4"></path>
        </g>
    </g>
</svg>