<?xml version="1.0" encoding="UTF-8" standalone="no"?>
<svg width="225px" height="35px" viewBox="0 0 225 35" version="1.1" xmlns="http://www.w3.org/2000/svg" xmlns:xlink="http://www.w3.org/1999/xlink" xmlns:sketch="http://www.bohemiancoding.com/sketch/ns">
    <!-- Generator: Sketch 3.3.3 (12081) - http://www.bohemiancoding.com/sketch -->
    <title>Imported Layers</title>
    <desc>Created with Sketch.</desc>
    <defs></defs>
    <g id="Page-1" stroke="none" stroke-width="1" fill="none" fill-rule="evenodd" sketch:type="MSPage">
        <g id="icon-mentor-copy" sketch:type="MSArtboardGroup">
            <g id="Imported-Layers" sketch:type="MSLayerGroup">
                <path d="M67.235,0.309878049 L17.4359756,0.309878049 C16.2417073,0.309878049 15.2736585,1.27792683 15.2736585,2.47219512 C15.2736585,3.66560976 16.2417073,4.63365854 17.4359756,4.63365854 L55.9069512,4.63365854 C54.115122,6.22487805 52.6596341,8.17890244 51.6591463,10.3881707 L2.49609756,10.3881707 C1.30182927,10.3881707 0.334634146,11.3562195 0.334634146,12.5504878 C0.334634146,13.7447561 1.30182927,14.7128049 2.49609756,14.7128049 L50.367561,14.7128049 C50.2267073,15.5937805 50.1336585,16.4909756 50.1336585,17.4112195 C50.1336585,18.4142683 50.2378049,19.3917073 50.4034146,20.3478049 L17.4359756,20.3478049 C16.2417073,20.3478049 15.2736585,21.3167073 15.2736585,22.510122 C15.2736585,23.7043902 16.2417073,24.672439 17.4359756,24.672439 L51.7743902,24.672439 C52.7697561,26.7835366 54.18,28.6547561 55.9060976,30.1870732 L7.20060976,30.1870732 C6.00634146,30.1870732 5.03829268,31.1559756 5.03829268,32.3493902 C5.03829268,33.5436585 6.00634146,34.512561 7.20060976,34.512561 L67.235,34.512561 C76.6645122,34.512561 84.3363415,26.839878 84.3363415,17.4112195 C84.3363415,7.98170732 76.6645122,0.309878049 67.235,0.309878049 L67.235,0.309878049 Z M67.235,30.1870732 C60.1889024,30.1870732 54.457439,24.4556098 54.457439,17.4112195 C54.457439,16.485 54.5615854,15.5835366 54.7502439,14.7128049 L62.2547561,14.7128049 C63.4490244,14.7128049 64.4162195,13.7447561 64.4162195,12.5504878 C64.4162195,11.3562195 63.4490244,10.3881707 62.2547561,10.3881707 L56.5710976,10.3881707 C58.8597561,6.92573171 62.7823171,4.63365854 67.235,4.63365854 C74.2802439,4.63365854 80.012561,10.3659756 80.012561,17.4112195 C80.012561,24.4556098 74.2802439,30.1870732 67.235,30.1870732 L67.235,30.1870732 Z" id="Fill-1" fill="#00E3F4" sketch:type="MSShapeGroup"></path>
                <path d="M111.523659,22.860122 C111.317073,22.860122 110.909878,22.8908537 110.488171,23.1034146 C109.049756,23.8614634 107.665976,24.3668293 105.584756,24.3668293 C101.302805,24.3668293 98.7469512,21.7657317 98.7469512,17.4095122 C98.7469512,13.0541463 101.302805,10.4547561 105.584756,10.4547561 C107.66939,10.4547561 109.052317,10.9592683 110.509512,11.7292683 C110.914146,11.9307317 111.31878,11.9606098 111.523659,11.9606098 C112.169024,11.9606098 112.758049,11.7156098 113.183171,11.2691463 C113.594634,10.8380488 113.814024,10.2473171 113.785854,9.64207317 C113.738902,8.75085366 113.329146,8.09182927 112.587317,7.69317073 C110.860366,6.71829268 108.645976,5.72036585 105.318415,5.72036585 C98.592439,5.72036585 93.8947561,10.5273171 93.8947561,17.4095122 C93.8947561,24.2934146 98.592439,29.1012195 105.318415,29.1012195 C108.645122,29.1012195 110.859512,28.1032927 112.567683,27.1386585 C113.329146,26.7297561 113.738902,26.069878 113.785854,25.1735366 C113.814024,24.5742683 113.594634,23.9835366 113.183171,23.552439 C112.758049,23.1059756 112.168171,22.860122 111.523659,22.860122" id="Fill-2" fill="#FFFFFF" sketch:type="MSShapeGroup"></path>
                <path d="M152.409634,15.1541463 C149.385122,14.4285366 147.960366,13.9453659 147.960366,12.6529268 C147.960366,10.9669512 150.119268,10.3659756 152.139878,10.3659756 C153.651707,10.3659756 155.132805,10.6135366 156.493537,11.0847561 C156.827317,11.2187805 157.10561,11.2810976 157.36939,11.2810976 C158.766829,11.2810976 159.632439,10.0757317 159.632439,8.96 C159.632439,7.91256098 159.069878,7.11012195 158.099268,6.76353659 C156.232317,6.07121951 154.127195,5.72036585 151.843659,5.72036585 C147.636829,5.72036585 143.109024,7.9552439 143.109024,12.8603659 C143.109024,17.7928049 147.892073,19.0169512 151.385244,19.9115854 C153.971829,20.5740244 155.668049,21.0819512 155.668049,22.0790244 C155.668049,22.712439 155.668049,24.3958537 151.578171,24.3958537 C149.675366,24.3958537 147.864756,24.0202439 146.181341,23.2732927 C145.857805,23.135 145.535122,23.0667073 145.195366,23.0667073 C143.909756,23.0667073 142.901585,24.0868293 142.901585,25.3886585 C142.901585,26.3387805 143.522195,27.2496341 144.383537,27.5936585 C146.704634,28.5941463 149.213537,29.1012195 151.843659,29.1012195 C156.934024,29.1012195 160.489512,26.2867073 160.489512,22.2565854 C160.489512,17.0928049 155.819146,15.9719512 152.409634,15.1541463" id="Fill-3" fill="#FFFFFF" sketch:type="MSShapeGroup"></path>
                <path d="M187.077561,5.86804878 L186.102683,5.86804878 C184.904146,5.86804878 183.778171,6.63463415 183.296707,7.78878049 L177.592561,22.0107317 L171.883293,7.77426829 C171.406951,6.63463415 170.281829,5.86804878 169.082439,5.86804878 L168.106707,5.86804878 C166.451463,5.86804878 165.10439,7.22878049 165.10439,8.9002439 L165.10439,26.5419512 C165.10439,27.8710976 166.186829,28.9526829 167.515976,28.9526829 C168.862195,28.9526829 169.956585,27.8710976 169.956585,26.5419512 L169.956585,15.3112195 L174.711463,27.0652439 C175.223659,28.2287805 176.327439,28.9526829 177.592561,28.9526829 C178.858537,28.9526829 179.963171,28.2287805 180.48561,27.0353659 L185.228537,15.3103659 L185.228537,26.5419512 C185.228537,27.8710976 186.32378,28.9526829 187.669146,28.9526829 C188.998293,28.9526829 190.079878,27.8710976 190.079878,26.5419512 L190.079878,8.9002439 C190.079878,7.22878049 188.732805,5.86804878 187.077561,5.86804878" id="Fill-4" fill="#FFFFFF" sketch:type="MSShapeGroup"></path>
                <path d="M198.71378,5.86804878 C197.384634,5.86804878 196.302195,6.96329268 196.302195,8.3095122 L196.302195,26.5419512 C196.302195,27.8710976 197.384634,28.9526829 198.71378,28.9526829 C200.059146,28.9526829 201.15439,27.8710976 201.15439,26.5419512 L201.15439,8.3095122 C201.15439,6.96329268 200.059146,5.86804878 198.71378,5.86804878" id="Fill-5" fill="#FFFFFF" sketch:type="MSShapeGroup"></path>
                <path d="M221.868415,6.01573171 L207.153049,6.01573171 C205.85122,6.01573171 204.830244,7.0495122 204.830244,8.36841463 C204.830244,9.67109756 205.85122,10.6912195 207.153049,10.6912195 L212.1,10.6912195 L212.1,26.5419512 C212.1,27.8710976 213.181585,28.9526829 214.510732,28.9526829 C215.856098,28.9526829 216.952195,27.8710976 216.952195,26.5419512 L216.952195,10.6912195 L221.868415,10.6912195 C223.187317,10.6912195 224.221098,9.67109756 224.221098,8.36841463 C224.221098,7.07170732 223.165976,6.01573171 221.868415,6.01573171" id="Fill-6" fill="#FFFFFF" sketch:type="MSShapeGroup"></path>
                <path d="M128.077805,5.72036585 C121.360366,5.72036585 116.757439,10.4095122 116.624268,17.43 C116.757439,24.4112195 121.360366,29.1012195 128.077805,29.1012195 C134.793537,29.1012195 139.396463,24.4112195 139.530488,17.3890244 C139.396463,10.4095122 134.793537,5.72036585 128.077805,5.72036585 L128.077805,5.72036585 Z M128.077805,24.4257317 C124.067317,24.4257317 121.476463,21.6718293 121.476463,17.4095122 C121.476463,13.1489024 124.067317,10.3958537 128.077805,10.3958537 C132.088293,10.3958537 134.68,13.1489024 134.68,17.4095122 C134.68,21.6718293 132.088293,24.4257317 128.077805,24.4257317 L128.077805,24.4257317 Z" id="Fill-7" fill="#FFFFFF" sketch:type="MSShapeGroup"></path>
            </g>
        </g>
    </g>
</svg>